<?xml version="1.0" encoding="UTF-8"?>
<svg xmlns="http://www.w3.org/2000/svg" version="1.1" id="svg2" viewBox="0 0 400 400" xml:space="preserve">
  <g id="g8" transform="matrix(1.3333333,0,0,-1.3333333,-170,1725)">
   <g id="g64" transform="translate(377.6035,1113.2739)">
          <path
            d="m 0,0 -46.605,-58.135 -98.468,78.939 4.341,5.415 c 8.502,10.605 23.991,12.31 34.596,3.808 l 54.649,-43.81 19.083,23.803 c 11.258,14.045 9.001,34.558 -5.044,45.818 l -73.037,58.552 c -13.596,10.9 -15.782,30.756 -4.883,44.352 L -7.998,72.667 C 14.276,54.809 17.858,22.275 0,0"
            style="fill:#013855;fill-opacity:1;fill-rule:nonzero;stroke:none"
            id="path66"
          />
        </g>
        <g id="g68" transform="translate(297.5996,1013.1182)">
          <path
            d="m 0,0 v 0 l -113.924,91.331 c -16.846,13.504 -19.554,38.107 -6.049,54.953 l 52.736,65.782 13.178,-10.564 c 6.016,-4.823 6.983,-13.609 2.161,-19.626 l -33.944,-42.34 c -8.404,-10.482 -6.718,-25.791 3.763,-34.194 L -4.773,43.368 C 8.521,32.71 10.658,13.294 0,0"
            style="fill:#f49819;fill-opacity:1;fill-rule:nonzero;stroke:none"
            id="path70"
          />
        </g>
  </g>
</svg>
